<svg width="228" height="230" xmlns="http://www.w3.org/2000/svg" xmlns:xlink="http://www.w3.org/1999/xlink" overflow="hidden"><defs><clipPath id="clip0"><rect x="212" y="222" width="228" height="230"/></clipPath><clipPath id="clip1"><rect x="212" y="223" width="227" height="228"/></clipPath><clipPath id="clip2"><rect x="212" y="223" width="227" height="228"/></clipPath><clipPath id="clip3"><rect x="212" y="223" width="227" height="228"/></clipPath></defs><g clip-path="url(#clip0)" transform="translate(-212 -222)"><g clip-path="url(#clip1)"><g clip-path="url(#clip2)"><g clip-path="url(#clip3)"><path d="M62.1649 118.229C60.7012 118.226 59.3217 117.545 58.4288 116.385 56.8283 114.321 57.204 111.35 59.268 109.75 59.2721 109.746 59.2761 109.743 59.2801 109.74 68.3636 102.659 79.065 97.946 90.4217 96.0257 93.0336 95.6143 95.4842 97.3981 95.8957 100.01 96.3071 102.622 94.5233 105.073 91.9113 105.484 82.1156 107.136 72.8845 111.199 65.0497 117.307 64.2152 117.922 63.2015 118.246 62.1649 118.229Z" fill="#FFFFFF" fill-rule="nonzero" fill-opacity="1" transform="matrix(1 0 0 1.00441 212 223)"/><path d="M37.3604 162.329 37.124 162.329C34.5203 162.201 32.5109 159.991 32.6312 157.387 33.1141 148.618 35.5368 140.065 39.725 132.346 40.9657 130.041 43.8398 129.178 46.1448 130.419 48.4498 131.659 49.3127 134.533 48.072 136.838 44.5036 143.297 42.4194 150.47 41.9714 157.836 41.8482 160.31 39.8368 162.27 37.3604 162.329Z" fill="#FFFFFF" fill-rule="nonzero" fill-opacity="1" transform="matrix(1 0 0 1.00441 212 223)"/><path d="M12.3195 101.914C10.8309 101.914 9.42927 101.213 8.53615 100.022 6.96386 97.9387 7.37658 94.9754 9.45833 93.401 21.5177 84.3683 40.0324 79.2135 60.2732 79.2135 68.55 79.1795 76.8026 80.1081 84.8649 81.9801 87.4555 82.3119 89.2867 84.6809 88.9549 87.2718 88.6232 89.8624 86.2541 91.6936 83.6635 91.3618 83.3563 91.3226 83.0539 91.253 82.7604 91.1547 75.4009 89.4638 67.8718 88.6227 60.3205 88.6482 42.3497 88.6482 25.4902 93.2592 15.1806 100.991 14.3526 101.602 13.3481 101.926 12.3195 101.914Z" fill="#FFFFFF" fill-rule="nonzero" fill-opacity="1" transform="matrix(1 0 0 1.00441 212 223)"/><path d="M103.332 85.5033C101.606 85.4813 100.007 84.5927 99.076 83.1387 93.7065 75.2325 87.0202 68.3062 79.3081 62.6615 66.5157 53.2031 52.0681 47.4099 40.6945 47.3862 37.8868 47.3862 35.6106 45.1101 35.6106 42.3024 35.6106 39.4947 37.8868 37.2185 40.6945 37.2185 54.3618 37.2185 70.6537 43.532 85.3615 54.5036 94.0376 60.8589 101.549 68.6668 107.565 77.582 109.093 79.9532 108.41 83.1139 106.038 84.6419 105.224 85.1666 104.277 85.4489 103.309 85.456Z" fill="#FFFFFF" fill-rule="nonzero" fill-opacity="1" transform="matrix(1 0 0 1.00441 212 223)"/><path d="M192.075 141.142C190.111 141.142 188.351 139.928 187.653 138.092 183.444 126.978 172.898 116.432 159.278 109.882 154.03 107.302 148.465 105.426 142.726 104.302 140.16 103.812 138.477 101.335 138.967 98.7686 139.456 96.2026 141.934 94.5192 144.5 95.009 151.056 96.2948 157.415 98.4331 163.416 101.37 179.377 109.078 191.389 121.232 196.497 134.781 197.424 137.223 196.197 139.954 193.755 140.881 193.755 140.882 193.754 140.882 193.754 140.882 193.215 141.072 192.646 141.161 192.075 141.142Z" fill="#FFFFFF" fill-rule="nonzero" fill-opacity="1" transform="matrix(1 0 0 1.00441 212 223)"/><path d="M148.283 146.604C145.671 146.604 143.554 144.487 143.554 141.875 143.235 134.451 140.177 127.409 134.97 122.107 132.833 119.71 130.383 117.61 127.687 115.865 125.437 114.54 124.686 111.641 126.011 109.39 127.336 107.139 130.234 106.389 132.485 107.713 132.583 107.771 132.678 107.832 132.771 107.896 136.136 110.067 139.197 112.675 141.875 115.652 148.762 122.717 152.716 132.129 152.941 141.993 152.878 144.531 150.822 146.567 148.283 146.604Z" fill="#FFFFFF" fill-rule="nonzero" fill-opacity="1" transform="matrix(1 0 0 1.00441 212 223)"/><path d="M129.697 91.8877C127.085 91.8993 124.959 89.7913 124.947 87.1796 124.94 85.4158 125.914 83.7944 127.475 82.9732 133.594 79.7756 140.104 77.3907 146.841 75.8795 149.394 75.2919 151.94 76.8851 152.527 79.4382 153.115 81.9912 151.522 84.5374 148.969 85.125 143.044 86.4409 137.314 88.5153 131.92 91.2966 131.239 91.6735 130.476 91.8766 129.697 91.8877Z" fill="#FFFFFF" fill-rule="nonzero" fill-opacity="1" transform="matrix(1 0 0 1.00441 212 223)"/><path d="M213.522 93.5429C212.568 93.5427 211.637 93.2542 210.85 92.7153 203.52 87.6787 191.129 84.0846 177.746 83.0915 175.134 82.8957 173.175 80.6195 173.371 78.0076 173.567 75.3957 175.843 73.4373 178.455 73.6331 193.707 74.7681 207.492 78.8588 216.288 84.8885 218.443 86.3645 218.994 89.3079 217.517 91.4628 216.636 92.7496 215.176 93.519 213.616 93.5193Z" fill="#FFFFFF" fill-rule="nonzero" fill-opacity="1" transform="matrix(1 0 0 1.00441 212 223)"/><path d="M120.948 79.5919C118.337 79.5914 116.22 77.4737 116.22 74.8618 116.22 74.1673 116.373 73.4813 116.669 72.8528 120.209 65.3419 124.803 58.3752 130.312 52.1627 141.97 38.8265 156.323 29.7938 169.588 27.3582 172.177 27.0111 174.557 28.8283 174.904 31.417 175.227 33.832 173.663 36.0977 171.29 36.651 160.224 38.6846 147.645 46.8187 137.43 58.4052 132.55 63.9561 128.475 70.1645 125.323 76.849 124.536 78.5489 122.821 79.6245 120.948 79.5919Z" fill="#FFFFFF" fill-rule="nonzero" fill-opacity="1" transform="matrix(1 0 0 1.00441 212 223)"/><path d="M96.2385 199.287C93.8647 199.31 91.8416 197.57 91.5094 195.22 90.0166 182.776 90.0722 170.195 91.6749 157.765 93.0657 144.365 96.3208 131.225 101.346 118.726 102.391 116.329 105.18 115.234 107.577 116.278 109.973 117.323 111.069 120.113 110.024 122.509 105.364 134.155 102.355 146.397 101.086 158.876 99.5681 170.497 99.5125 182.262 100.92 193.896 101.287 196.465 99.5142 198.851 96.9479 199.24 96.7141 199.283 96.4759 199.298 96.2385 199.287Z" fill="#FFFFFF" fill-rule="nonzero" fill-opacity="1" transform="matrix(1 0 0 1.00441 212 223)"/><path d="M77.5347 142.797C77.2053 142.844 76.8709 142.844 76.5416 142.797 73.9859 142.258 72.3508 139.75 72.8897 137.194 72.893 137.178 72.8966 137.162 72.9001 137.146 74.4468 130.715 77.2691 124.66 81.1998 119.341 82.6533 117.357 84.2328 115.469 85.929 113.689 87.718 111.783 90.7142 111.687 92.6207 113.476 94.5273 115.265 94.6226 118.262 92.8335 120.168 91.4481 121.666 90.153 123.245 88.9556 124.897 85.7996 129.135 83.5171 133.957 82.2402 139.085 81.7562 141.285 79.7872 142.839 77.5347 142.797Z" fill="#FFFFFF" fill-rule="nonzero" fill-opacity="1" transform="matrix(1 0 0 1.00441 212 223)"/><path d="M105.815 50.9568C103.503 50.9946 101.502 49.3541 101.086 47.0789 100.183 41.4374 98.5289 35.9421 96.1676 30.7396 94.9662 28.415 95.8765 25.5567 98.2011 24.3552 100.526 23.1538 103.384 24.0641 104.586 26.3887 107.402 32.396 109.383 38.7607 110.473 45.3054 110.948 47.8712 109.255 50.3365 106.69 50.8149 106.405 50.8974 106.111 50.9449 105.815 50.9568Z" fill="#FFFFFF" fill-rule="nonzero" fill-opacity="1" transform="matrix(1 0 0 1.00441 212 223)"/><path d="M134.497 179.708C132.1 179.727 130.068 177.949 129.768 175.57 127.946 159.789 124.426 144.25 119.27 129.224 118.401 126.756 119.698 124.051 122.166 123.183 124.634 122.314 127.339 123.611 128.208 126.08 133.575 141.752 137.246 157.956 139.156 174.412 139.49 177.002 137.662 179.373 135.071 179.708 135.069 179.708 135.067 179.708 135.065 179.708Z" fill="#FFFFFF" fill-rule="nonzero" fill-opacity="1" transform="matrix(1 0 0 1.00441 212 223)"/><path d="M26.0104 115.865C26.0104 118.476 23.8931 120.594 21.2812 120.594 18.6694 120.594 16.5521 118.476 16.5521 115.865 16.5521 113.253 18.6694 111.135 21.2812 111.135 23.8931 111.135 26.0104 113.253 26.0104 115.865Z" fill="#FFFFFF" fill-rule="nonzero" fill-opacity="1" transform="matrix(1 0 0 1.00441 212 223)"/><path d="M75.6667 156.062C75.6667 158.674 73.5493 160.792 70.9375 160.792 68.3256 160.792 66.2083 158.674 66.2083 156.062 66.2083 153.451 68.3256 151.333 70.9375 151.333 73.5493 151.333 75.6667 153.451 75.6667 156.062Z" fill="#FFFFFF" fill-rule="nonzero" fill-opacity="1" transform="matrix(1 0 0 1.00441 212 223)"/><path d="M172.615 144.24C172.615 146.851 170.497 148.969 167.885 148.969 165.274 148.969 163.156 146.851 163.156 144.24 163.156 141.628 165.274 139.51 167.885 139.51 170.497 139.51 172.615 141.628 172.615 144.24Z" fill="#FFFFFF" fill-rule="nonzero" fill-opacity="1" transform="matrix(1 0 0 1.00441 212 223)"/><path d="M141.875 198.625C141.875 201.237 139.758 203.354 137.146 203.354 134.534 203.354 132.417 201.237 132.417 198.625 132.417 196.013 134.534 193.896 137.146 193.896 139.758 193.896 141.875 196.013 141.875 198.625Z" fill="#FFFFFF" fill-rule="nonzero" fill-opacity="1" transform="matrix(1 0 0 1.00441 212 223)"/><path d="M132.417 35.4688C132.417 38.0806 130.299 40.1979 127.687 40.1979 125.076 40.1979 122.958 38.0806 122.958 35.4688 122.958 32.8569 125.076 30.7396 127.687 30.7396 130.299 30.7396 132.417 32.8569 132.417 35.4688Z" fill="#FFFFFF" fill-rule="nonzero" fill-opacity="1" transform="matrix(1 0 0 1.00441 212 223)"/><path d="M78.0312 28.375C78.0312 30.9868 75.9139 33.1042 73.3021 33.1042 70.6902 33.1042 68.5729 30.9868 68.5729 28.375 68.5729 25.7632 70.6902 23.6458 73.3021 23.6458 75.9139 23.6458 78.0312 25.7632 78.0312 28.375Z" fill="#FFFFFF" fill-rule="nonzero" fill-opacity="1" transform="matrix(1 0 0 1.00441 212 223)"/><path d="M167.885 78.0312C167.885 80.6431 165.768 82.7604 163.156 82.7604 160.544 82.7604 158.427 80.6431 158.427 78.0312 158.427 75.4194 160.544 73.3021 163.156 73.3021 165.768 73.3021 167.885 75.4194 167.885 78.0312Z" fill="#FFFFFF" fill-rule="nonzero" fill-opacity="1" transform="matrix(1 0 0 1.00441 212 223)"/><path d="M56.75 122.958C56.75 125.57 54.6327 127.687 52.0208 127.687 49.409 127.687 47.2917 125.57 47.2917 122.958 47.2917 120.346 49.409 118.229 52.0208 118.229 54.6327 118.229 56.75 120.346 56.75 122.958Z" fill="#FFFFFF" fill-rule="nonzero" fill-opacity="1" transform="matrix(1 0 0 1.00441 212 223)"/><path d="M113.5 61.3846C113.5 63.9964 111.383 66.1137 108.771 66.1137 106.159 66.1137 104.042 63.9964 104.042 61.3846 104.042 58.7727 106.159 56.6554 108.771 56.6554 111.383 56.6554 113.5 58.7727 113.5 61.3846Z" fill="#FFFFFF" fill-rule="nonzero" fill-opacity="1" transform="matrix(1 0 0 1.00441 212 223)"/><path d="M46.7242 185.478C47.2077 185.026 47.3993 184.342 47.2207 183.704 46.9805 183.081 46.3981 182.656 45.731 182.617L40.3161 182.617C39.638 182.61 39.039 182.173 38.8265 181.529L37.053 176.185C36.8109 175.504 36.1892 175.031 35.4688 174.979 34.7821 175.026 34.1753 175.443 33.8845 176.067L32.111 181.387C31.9415 182.061 31.3151 182.519 30.6214 182.475L25.2065 182.475C24.5207 182.458 23.9095 182.904 23.7168 183.563 23.5207 184.2 23.7149 184.893 24.2133 185.336L26.0814 187.015 28.375 189.167C28.5845 189.401 28.7453 189.674 28.8479 189.971 28.9647 190.251 28.9647 190.566 28.8479 190.846L27.1691 196.473C26.9473 197.135 27.1998 197.864 27.7839 198.247 28.3426 198.645 29.0931 198.645 29.6519 198.247L34.381 194.889C34.9554 194.513 35.6983 194.513 36.2727 194.889L41.0019 198.247C41.5606 198.645 42.3111 198.645 42.8699 198.247 43.4383 197.852 43.6791 197.13 43.461 196.473L41.7822 190.846C41.5888 190.237 41.7853 189.572 42.2787 189.167L46.6296 185.431Z" fill="#FFFFFF" fill-rule="nonzero" fill-opacity="1" transform="matrix(1 0 0 1.00441 212 223)"/><path d="M27.8075 57.7904C28.2911 57.3383 28.4826 56.6545 28.3041 56.017 28.0638 55.3934 27.4814 54.9681 26.8144 54.9293L21.3995 54.9293C20.7213 54.9229 20.1223 54.4857 19.9098 53.8416L18.1364 48.4976C17.8943 47.8168 17.2727 47.3437 16.5521 47.2917 15.8654 47.339 15.2587 47.7556 14.9678 48.3794L13.1944 53.6997C13.0248 54.3738 12.3985 54.8311 11.7047 54.7874L6.28979 54.7874C5.60411 54.7704 4.99279 55.2168 4.8001 55.8751 4.60401 56.5126 4.79812 57.2057 5.29667 57.6485L7.09375 59.351 9.45833 61.4792C9.66779 61.713 9.82856 61.9864 9.93125 62.2831 10.0482 62.5631 10.0482 62.8781 9.93125 63.158L8.2524 68.7857C8.03067 69.4478 8.28318 70.1763 8.86719 70.5592 9.42601 70.9581 10.1764 70.9581 10.7352 70.5592L15.4644 67.2015C16.0388 66.8252 16.7816 66.8252 17.356 67.2015L22.0852 70.5592C22.644 70.9581 23.3944 70.9581 23.9532 70.5592 24.5217 70.1645 24.7624 69.4426 24.5444 68.7857L22.8655 63.158C22.6929 62.53 22.9285 61.8606 23.4567 61.4792L27.8075 57.7431Z" fill="#FFFFFF" fill-rule="nonzero" fill-opacity="1" transform="matrix(1 0 0 1.00441 212 223)"/><path d="M190.964 166.325C191.447 165.873 191.639 165.189 191.46 164.551 191.22 163.928 190.638 163.502 189.971 163.464L184.556 163.464C183.878 163.457 183.279 163.02 183.066 162.376L181.293 157.032C181.043 156.361 180.423 155.898 179.708 155.85 179.022 155.897 178.415 156.314 178.124 156.937L176.351 162.281C176.164 162.941 175.545 163.383 174.861 163.345L169.446 163.345C168.76 163.329 168.149 163.775 167.956 164.433 167.76 165.071 167.954 165.764 168.453 166.207L170.25 167.885 172.615 170.061C172.824 170.295 172.985 170.568 173.087 170.865 173.204 171.145 173.204 171.46 173.087 171.74L171.503 177.344C171.281 178.006 171.534 178.734 172.118 179.117 172.677 179.516 173.427 179.516 173.986 179.117L178.715 175.759C179.29 175.383 180.033 175.383 180.607 175.759L185.336 179.117C185.895 179.516 186.645 179.516 187.204 179.117 187.773 178.723 188.013 178.001 187.795 177.344L186.116 171.716C185.923 171.108 186.119 170.442 186.613 170.037L190.964 166.301Z" fill="#FFFFFF" fill-rule="nonzero" fill-opacity="1" transform="matrix(1 0 0 1.00441 212 223)"/><path d="M205.151 50.6967C205.635 50.2446 205.826 49.5607 205.648 48.9232 205.408 48.2997 204.825 47.8743 204.158 47.8355L198.743 47.8355C198.065 47.8291 197.466 47.3919 197.254 46.7478L195.48 41.4039C195.238 40.7231 194.616 40.2499 193.896 40.1979 193.209 40.2452 192.602 40.6618 192.312 41.2856L190.538 46.6296C190.351 47.2888 189.733 47.7308 189.048 47.6936L183.634 47.6936C182.948 47.6766 182.337 48.1231 182.144 48.7813 181.948 49.4188 182.142 50.1119 182.64 50.5548L184.508 52.2336 186.802 54.3854C187.012 54.6193 187.172 54.8926 187.275 55.1894 187.392 55.4693 187.392 55.7843 187.275 56.0643L185.596 61.692C185.374 62.3541 185.627 63.0826 186.211 63.4654 186.77 63.8643 187.52 63.8643 188.079 63.4654L192.808 60.1077C193.382 59.7315 194.125 59.7315 194.7 60.1077L199.429 63.4654C199.988 63.8643 200.738 63.8643 201.297 63.4654 201.865 63.0708 202.106 62.3489 201.888 61.692L200.209 56.0643C200.016 55.4559 200.212 54.7907 200.706 54.3854L205.057 50.6494Z" fill="#FFFFFF" fill-rule="nonzero" fill-opacity="1" transform="matrix(1 0 0 1.00441 212 223)"/><path d="M222.271 122.958C222.271 125.57 220.154 127.687 217.542 127.687 214.93 127.687 212.812 125.57 212.812 122.958 212.812 120.346 214.93 118.229 217.542 118.229 220.154 118.229 222.271 120.346 222.271 122.958Z" fill="#FFFFFF" fill-rule="nonzero" fill-opacity="1" transform="matrix(1 0 0 1.00441 212 223)"/></g></g></g></g></svg>