<svg width="705" height="665" xmlns="http://www.w3.org/2000/svg" xmlns:xlink="http://www.w3.org/1999/xlink" overflow="hidden"><defs><clipPath id="clip0"><rect x="2640" y="994" width="705" height="665"/></clipPath></defs><g clip-path="url(#clip0)" transform="translate(-2640 -994)"><path d="M634.355 19.7747C645.303 19.7747 654.179 28.6276 654.179 39.5486L654.179 435.033C654.179 445.954 645.303 454.807 634.355 454.807L515.414 454.807 515.414 565.265 415.444 465.544 409.635 459.751 39.6487 459.751C28.7003 459.751 19.8251 450.898 19.8251 439.976L19.8251 39.5486C19.8251 28.6276 28.7003 19.7747 39.6487 19.7747L634.355 19.7747M634.355 0.000360595 39.6487 0.000360595C17.7526 0.000360595 0.00180619 17.707 0.00180619 39.5486L0.00180619 439.976C0.00180619 461.818 17.7526 479.525 39.6487 479.525L401.428 479.525 535.237 613.001 535.237 474.581 634.355 474.581C656.251 474.581 674.002 456.875 674.002 435.033L674.002 39.5486C674.002 17.707 656.251 0.000360595 634.355 0.000360595Z" stroke="#FFFFFF" stroke-width="27.5" stroke-linecap="butt" stroke-linejoin="miter" stroke-miterlimit="8" stroke-opacity="1" fill="#FFFFFF" fill-rule="evenodd" fill-opacity="1" transform="matrix(-1 1.22465e-16 1.22465e-16 1 3329 1010)"/></g></svg>