<svg width="980" height="894" xmlns="http://www.w3.org/2000/svg" xmlns:xlink="http://www.w3.org/1999/xlink" overflow="hidden"><defs><clipPath id="clip0"><rect x="880" y="957" width="980" height="894"/></clipPath></defs><g clip-path="url(#clip0)" transform="translate(-880 -957)"><path d="M917.824 28.8549C933.662 28.8549 946.501 41.6938 946.501 57.5323L946.501 631.081C946.501 646.919 933.662 659.758 917.824 659.758L745.766 659.758 745.766 819.95 601.15 675.33 592.748 666.928 57.5304 666.928C41.6924 666.928 28.8539 654.089 28.8539 638.25L28.8539 57.5323C28.8539 41.6938 41.6924 28.8549 57.5304 28.8549L917.824 28.8549M917.824 0.177471 57.5304 0.177471C25.8558 0.177471 0.177465 25.8567 0.177465 57.5323L0.177465 638.25C0.177465 669.926 25.8558 695.605 57.5304 695.605L580.876 695.605 774.442 889.178 774.442 688.436 917.824 688.436C949.499 688.436 975.177 662.757 975.177 631.081L975.177 57.5323C975.177 25.8567 949.499 0.177471 917.824 0.177471Z" fill="#FFFFFF" fill-rule="evenodd" fill-opacity="1" transform="matrix(-1 1.22465e-16 1.22465e-16 1 1860 958)"/></g></svg>